<svg width="16" height="16" viewBox="0 0 16 16" fill="none" xmlns="http://www.w3.org/2000/svg">
<path d="M8.19904 3.93136L8.15188 3.97853L7.53953 4.59088L2.71483 9.41558L3.24516 9.94591L2.71483 9.41558C2.69745 9.43295 2.68017 9.45019 2.66299 9.46733C2.41558 9.7141 2.19006 9.93905 2.03804 10.2231L2.6993 10.577L2.03804 10.2231C1.88602 10.5071 1.82395 10.8196 1.75586 11.1623C1.75113 11.1861 1.74637 11.2101 1.74155 11.2342L1.3094 13.3949C1.30794 13.4023 1.30638 13.41 1.30476 13.418C1.2859 13.5115 1.25785 13.6507 1.25155 13.7752C1.24396 13.9252 1.25601 14.2343 1.51087 14.4891L2.0412 13.9588L1.51088 14.4891C1.76574 14.744 2.07481 14.756 2.22482 14.7485C2.34934 14.7422 2.48848 14.7141 2.58198 14.6952C2.59004 14.6936 2.59775 14.6921 2.60509 14.6906L4.76584 14.2584C4.78993 14.2536 4.81387 14.2489 4.83767 14.2441C5.18042 14.176 5.49285 14.114 5.7769 13.962C6.06095 13.8099 6.2859 13.5844 6.53268 13.337C6.54982 13.3198 6.56705 13.3025 6.58443 13.2852L11.4224 8.4472L12.0422 7.82738L12.0884 7.78119L12.4464 7.42319L13.7076 6.16198C13.7314 6.13816 13.7551 6.11457 13.7786 6.09117C14.0901 5.78054 14.3672 5.50427 14.526 5.1838C14.8247 4.58103 14.8247 3.87334 14.526 3.27057C14.3672 2.9501 14.0901 2.67383 13.7786 2.36319C13.7551 2.3398 13.7314 2.31621 13.7076 2.29239C13.6838 2.26857 13.6602 2.24491 13.6368 2.22145C13.3262 1.90991 13.0499 1.63283 12.7294 1.47402C12.1267 1.17533 11.419 1.17533 10.8162 1.47402C10.4957 1.63283 10.2195 1.90991 9.90881 2.22146C9.88542 2.24492 9.86183 2.26857 9.83802 2.29239L8.5609 3.56951L8.19904 3.93136Z" stroke="#292929" stroke-width="1.5"/>
</svg>
